<svg width="22" height="16" viewBox="0 0 22 16" version="1.1" xmlns="http://www.w3.org/2000/svg" xmlns:xlink="http://www.w3.org/1999/xlink" xmlns:figma="http://www.figma.com/figma/ns">
<title>Icon</title>
<desc>Created using Figma</desc>
<g id="Canvas" transform="translate(768 -1165)" figma:type="canvas">
<g id="Icon" style="mix-blend-mode:normal;" figma:type="frame">
<g id="Stroke 1" style="mix-blend-mode:normal;" figma:type="vector">
<use xlink:href="#path0_stroke" transform="matrix(-1 0 0 1 -757.322 1170.59)" fill="#BDBDBD" style="mix-blend-mode:normal;"/>
</g>
<g id="Stroke 5" style="mix-blend-mode:normal;" figma:type="vector">
<use xlink:href="#path1_fill" transform="matrix(-1 0 0 1 -747 1166)" fill="#FFFFFF" style="mix-blend-mode:normal;"/>
<use xlink:href="#path2_stroke" transform="matrix(-1 0 0 1 -747 1166)" fill="#BDBDBD" style="mix-blend-mode:normal;"/>
</g>
</g>
</g>
<defs>
<path id="path0_stroke" d="M 5.67784 8.23332L 6.10092 7.96686L 5.92565 7.68857L 5.60071 7.7393L 5.67784 8.23332ZM 7.58691 9.16023L 7.65937 9.65496L 8.55297 9.52408L 7.96772 8.83622L 7.58691 9.16023ZM 7.09471 7.81445L 6.89038 7.35811L 6.59168 7.49185L 6.59473 7.8191L 7.09471 7.81445ZM -0.5 4.14846C -0.5 6.78805 1.9645 8.79692 4.83839 8.79692L 4.83839 7.79692C 2.36655 7.79692 0.5 6.09666 0.5 4.14846L -0.5 4.14846ZM 4.83839 8.79692C 5.14392 8.79656 5.46365 8.77241 5.75496 8.72733L 5.60071 7.7393C 5.34884 7.77902 5.10629 7.79727 4.83839 7.79692L 4.83839 8.79692ZM 5.25475 8.49978C 5.6952 9.19911 6.46657 9.67632 7.34558 9.67632L 7.34558 8.67632C 6.83879 8.67632 6.37408 8.40058 6.10092 7.96686L 5.25475 8.49978ZM 7.34558 9.67632C 7.44748 9.67606 7.56419 9.66847 7.65937 9.65496L 7.51445 8.66551C 7.4599 8.67393 7.41572 8.67657 7.34558 8.67632L 7.34558 9.67632ZM 7.96772 8.83622C 7.71027 8.54468 7.5907 8.23504 7.59468 7.8098L 6.59473 7.8191C 6.60827 8.42166 6.85029 9.05501 7.20609 9.48424L 7.96772 8.83622ZM 7.29903 8.2708C 8.98062 7.51787 10.1776 5.97746 10.1776 4.14846L 9.17757 4.14846C 9.17757 5.50957 8.28465 6.73382 6.89038 7.35811L 7.29903 8.2708ZM 10.1776 4.14846C 10.1776 1.50881 7.71301 -0.5 4.83839 -0.5L 4.83839 0.5C 7.31107 0.5 9.17757 2.20031 9.17757 4.14846L 10.1776 4.14846ZM 4.83839 -0.5C 1.9645 -0.5 -0.5 1.50886 -0.5 4.14846L 0.5 4.14846C 0.5 2.20026 2.36655 0.5 4.83839 0.5L 4.83839 -0.5Z"/>
<path id="path1_fill" fill-rule="evenodd" d="M 15.3928 6.32921C 15.3928 9.82906 11.9482 12.6584 7.69669 12.6584C 7.24124 12.6584 6.79365 12.626 6.36179 12.5612C 5.79444 13.4262 4.81157 14 3.70832 14C 3.57284 14 3.44461 13.992 3.32485 13.9761C 3.81236 13.4262 4.10026 12.7068 4.10813 11.9225C 1.66273 10.8721 0 8.76216 0 6.32921C 0 2.82936 3.44461 0 7.69669 0C 11.9482 0 15.3928 2.82936 15.3928 6.32921Z"/>
<path id="path2_stroke" d="M 6.36179 12.5612L 6.43604 12.0667L 6.11933 12.0191L 5.94369 12.2869L 6.36179 12.5612ZM 3.32485 13.9761L 2.95069 13.6445L 2.32705 14.348L 3.25902 14.4718L 3.32485 13.9761ZM 4.10813 11.9225L 4.6081 11.9275L 4.61144 11.5945L 4.30546 11.4631L 4.10813 11.9225ZM 14.8928 6.32921C 14.8928 9.46575 11.7681 12.1584 7.69669 12.1584L 7.69669 13.1584C 12.1282 13.1584 15.8928 10.1924 15.8928 6.32921L 14.8928 6.32921ZM 7.69669 12.1584C 7.25931 12.1587 6.84888 12.1291 6.43604 12.0667L 6.28755 13.0556C 6.73843 13.1229 7.22317 13.1581 7.69669 13.1584L 7.69669 12.1584ZM 5.94369 12.2869C 5.46441 13.0177 4.63528 13.5 3.70832 13.5L 3.70832 14.5C 4.98785 14.5 6.12447 13.8347 6.77989 12.8354L 5.94369 12.2869ZM 3.70832 13.5C 3.58832 13.5002 3.49303 13.4944 3.39068 13.4805L 3.25902 14.4718C 3.39619 14.4897 3.55735 14.4998 3.70832 14.5L 3.70832 13.5ZM 3.69901 14.3078C 4.23784 13.6888 4.59075 12.8038 4.6081 11.9275L 3.60815 11.9175C 3.60977 12.6097 3.38687 13.1636 2.95069 13.6445L 3.69901 14.3078ZM 4.30546 11.4631C 1.99738 10.4717 0.5 8.5163 0.5 6.32921L -0.5 6.32921C -0.5 9.00801 1.32807 11.2725 3.91079 12.3819L 4.30546 11.4631ZM 0.5 6.32921C 0.5 3.19269 3.62464 0.5 7.69669 0.5L 7.69669 -0.5C 3.26458 -0.5 -0.5 2.46604 -0.5 6.32921L 0.5 6.32921ZM 7.69669 0.5C 11.7681 0.5 14.8928 3.19267 14.8928 6.32921L 15.8928 6.32921C 15.8928 2.46606 12.1282 -0.5 7.69669 -0.5L 7.69669 0.5Z"/>
</defs>
</svg>
