<svg width="20" height="14" viewBox="0 0 20 14" version="1.1" xmlns="http://www.w3.org/2000/svg" xmlns:xlink="http://www.w3.org/1999/xlink" xmlns:figma="http://www.figma.com/figma/ns">
<title>Icon</title>
<desc>Created using Figma</desc>
<g id="Canvas" transform="translate(767 -981)" figma:type="canvas">
<g id="Icon" style="mix-blend-mode:normal;" figma:type="vector">
<use xlink:href="#path0_fill" transform="translate(-767 981)" fill="#BDBDBD" style="mix-blend-mode:normal;"/>
</g>
</g>
<defs>
<path id="path0_fill" fill-rule="evenodd" d="M 2 12L 2 13L 2 13C 2 13.5523 2.44772 14 3 14L 3 14L 19 14L 19 14C 19.5523 14 20 13.5523 20 13L 20 13L 20 7L 20 5L 20 3L 20 3C 20 2.44772 19.5523 2 19 2L 19 2L 18 2L 18 1L 18 1C 18 0.447716 17.5523 0 17 0L 17 0L 1 0L 1 0C 0.447716 0 0 0.447716 0 1L 0 1L 0 11L 0 11C 0 11.5523 0.447716 12 1 12L 1 12L 2 12ZM 18 3L 17 3L 4 3L 3 3L 3 4L 3 5L 19 5L 19 3L 18 3ZM 3 7L 3 11L 3 12L 3 13L 19 13L 19 7L 3 7ZM 17 2L 3 2L 3 2C 2.44772 2 2 2.44772 2 3L 2 3L 2 5L 2 7L 2 11L 1 11L 1 1L 17 1L 17 2Z"/>
</defs>
</svg>
