<svg width="18" height="18" viewBox="0 0 18 18" version="1.1" xmlns="http://www.w3.org/2000/svg" xmlns:xlink="http://www.w3.org/1999/xlink" xmlns:figma="http://www.figma.com/figma/ns">
<title>Icon</title>
<desc>Created using Figma</desc>
<g id="Canvas" transform="translate(767 -793)" figma:type="canvas">
<g id="Icon" style="mix-blend-mode:normal;" figma:type="frame">
<g id="Rectangle 2" style="mix-blend-mode:normal;" figma:type="rounded-rectangle">
<mask id="mask0_outline_ins">
<use xlink:href="#path0_fill" fill="white" transform="translate(-767 793)"/>
</mask>
<g mask="url(#mask0_outline_ins)">
<use xlink:href="#path1_stroke_2x" transform="translate(-767 793)" fill="#BDBDBD" style="mix-blend-mode:normal;"/>
</g>
</g>
<g id="Union" style="mix-blend-mode:normal;" figma:type="vector">
<use xlink:href="#path2_fill" transform="translate(-764 796)" fill="#BDBDBD" style="mix-blend-mode:normal;"/>
</g>
</g>
</g>
<defs>
<path id="path0_fill" d="M 0 1C 0 0.447715 0.447715 0 1 0L 17 0C 17.5523 0 18 0.447715 18 1L 18 17C 18 17.5523 17.5523 18 17 18L 1 18C 0.447715 18 0 17.5523 0 17L 0 1Z"/>
<path id="path1_stroke_2x" d="M 1 1L 17 1L 17 -1L 1 -1L 1 1ZM 17 1L 17 17L 19 17L 19 1L 17 1ZM 17 17L 1 17L 1 19L 17 19L 17 17ZM 1 17L 1 1L -1 1L -1 17L 1 17ZM 1 -1C -0.104569 -1 -1 -0.104569 -1 1L 1 1L 1 1L 1 -1ZM 17 1L 17 1L 19 1C 19 -0.104569 18.1046 -1 17 -1L 17 1ZM 17 17L 17 19C 18.1046 19 19 18.1046 19 17L 17 17ZM 1 17L 1 17L -1 17C -1 18.1046 -0.104569 19 1 19L 1 17Z"/>
<path id="path2_fill" d="M 12.0594 2.76183C 12.5769 2.25099 12.5769 1.41569 12.0595 0.904848L 12.0595 0.904848C 11.5513 0.403238 10.7344 0.403235 10.2263 0.904841L 3.71426 7.33335L 2.77372 6.40485C 2.2656 5.90324 1.44866 5.90324 0.94054 6.40485L 0.94054 6.40485C 0.423069 6.9157 0.423073 7.75099 0.940549 8.26183L 1.85713 9.16665L 3.01173 10.3065C 3.40119 10.6909 4.02734 10.6909 4.4168 10.3065L 5.5714 9.16665L 12.0594 2.76183Z"/>
</defs>
</svg>
