<svg width="230" height="21" viewBox="0 0 230 21" version="1.1" xmlns="http://www.w3.org/2000/svg" xmlns:xlink="http://www.w3.org/1999/xlink" xmlns:figma="http://www.figma.com/figma/ns">
<title>Logo</title>
<desc>Created using Figma</desc>
<g id="Canvas" transform="translate(-460 443)" figma:type="canvas">
<g id="Logo" style="mix-blend-mode:normal;" figma:type="frame">
<g id="Wordmark" style="mix-blend-mode:normal;" figma:type="frame">
<g id="Text" style="mix-blend-mode:normal;" figma:type="text">
<use xlink:href="#path0_fill" transform="translate(500 -441.163)" fill="#333333" style="mix-blend-mode:normal;"/>
</g>
</g>
<g id="Icon" style="mix-blend-mode:normal;" figma:type="frame">
<g id="Fill" style="mix-blend-mode:normal;" figma:type="vector">
<use xlink:href="#path1_fill" transform="translate(460.224 -442.036)" fill="#FEFEFE" style="mix-blend-mode:normal;"/>
</g>
<g id="Fill" style="mix-blend-mode:normal;" figma:type="vector-operation">
<use xlink:href="#path2_fill" transform="translate(460.002 -442.163)" fill="#333333" style="mix-blend-mode:normal;"/>
</g>
<g id="Fill" style="mix-blend-mode:normal;" figma:type="vector">
<use xlink:href="#path3_fill" transform="translate(460 -440.69)" fill="#333333" style="mix-blend-mode:normal;"/>
</g>
<g id="Fill" style="mix-blend-mode:normal;" figma:type="vector">
<use xlink:href="#path4_fill" transform="translate(480.256 -442.036)" fill="#333333" style="mix-blend-mode:normal;"/>
</g>
<g id="Fill" style="mix-blend-mode:normal;" figma:type="vector">
<use xlink:href="#path5_fill" transform="translate(474.509 -442.036)" fill="#333333" style="mix-blend-mode:normal;"/>
</g>
<g id="Fill" style="mix-blend-mode:normal;" figma:type="vector">
<use xlink:href="#path6_fill" transform="translate(460.765 -442.036)" fill="#FEFEFE" style="mix-blend-mode:normal;"/>
</g>
<g id="Fill" style="mix-blend-mode:normal;" figma:type="vector-operation">
<use xlink:href="#path7_fill" transform="translate(460.515 -442.163)" fill="#333333" style="mix-blend-mode:normal;"/>
</g>
<g id="Fill" style="mix-blend-mode:normal;" figma:type="vector">
<use xlink:href="#path8_fill" transform="translate(473.286 -442.153)" fill="#333333" style="mix-blend-mode:normal;"/>
</g>
<g id="Fill" style="mix-blend-mode:normal;" figma:type="vector">
<use xlink:href="#path9_fill" transform="translate(469.199 -442.153)" fill="#333333" style="mix-blend-mode:normal;"/>
</g>
</g>
</g>
</g>
<defs>
<path id="path0_fill" d="M 6.2998 9.156C 6.39314 9.33333 6.4818 9.51767 6.5658 9.709C 6.65447 9.90033 6.73847 10.0963 6.8178 10.297C 6.89714 10.0917 6.98114 9.89333 7.0698 9.702C 7.15847 9.506 7.24947 9.317 7.3428 9.135L 9.9608 3.983C 10.0075 3.89433 10.0541 3.82667 10.1008 3.78C 10.1521 3.72867 10.2081 3.69133 10.2688 3.668C 10.3295 3.64467 10.3971 3.63067 10.4718 3.626C 10.5511 3.62133 10.6421 3.619 10.7448 3.619L 12.5508 3.619L 12.5508 13.818L 10.4648 13.818L 10.4648 7.952C 10.4648 7.66733 10.4788 7.35933 10.5068 7.028L 7.8048 12.271C 7.7208 12.4343 7.60647 12.558 7.4618 12.642C 7.3218 12.726 7.1608 12.768 6.9788 12.768L 6.6568 12.768C 6.4748 12.768 6.31147 12.726 6.1668 12.642C 6.0268 12.558 5.9148 12.4343 5.8308 12.271L 3.1148 7.021C 3.13347 7.18433 3.14747 7.34767 3.1568 7.511C 3.16614 7.66967 3.1708 7.81667 3.1708 7.952L 3.1708 13.818L 1.0848 13.818L 1.0848 3.619L 2.8908 3.619C 2.99347 3.619 3.08214 3.62133 3.1568 3.626C 3.23614 3.63067 3.30614 3.64467 3.3668 3.668C 3.42747 3.69133 3.48114 3.72867 3.5278 3.78C 3.57914 3.82667 3.62814 3.89433 3.6748 3.983L 6.2998 9.156ZM 26.2491 13.818L 24.4151 13.818C 24.2098 13.818 24.0395 13.7713 23.9041 13.678C 23.7735 13.58 23.6825 13.4563 23.6311 13.307L 23.0291 11.529L 19.1511 11.529L 18.5491 13.307C 18.5025 13.4377 18.4115 13.5567 18.2761 13.664C 18.1408 13.7667 17.9751 13.818 17.7791 13.818L 15.9311 13.818L 19.8791 3.619L 22.3011 3.619L 26.2491 13.818ZM 19.6971 9.919L 22.4831 9.919L 21.5451 7.126C 21.4845 6.94867 21.4121 6.741 21.3281 6.503C 21.2488 6.26033 21.1695 5.999 21.0901 5.719C 21.0155 6.00367 20.9385 6.26733 20.8591 6.51C 20.7798 6.75267 20.7051 6.96267 20.6351 7.14L 19.6971 9.919ZM 35.898 3.619L 35.898 5.495L 33.028 5.495L 33.028 13.818L 30.662 13.818L 30.662 5.495L 27.792 5.495L 27.792 3.619L 35.898 3.619ZM 45.9589 3.619L 45.9589 5.439L 41.7729 5.439L 41.7729 7.819L 44.9789 7.819L 44.9789 9.569L 41.7729 9.569L 41.7729 11.998L 45.9589 11.998L 45.9589 13.818L 39.3929 13.818L 39.3929 3.619L 45.9589 3.619ZM 52.1949 10.045L 52.1949 13.818L 49.8289 13.818L 49.8289 3.619L 53.1469 3.619C 53.8842 3.619 54.5119 3.696 55.0299 3.85C 55.5525 3.99933 55.9772 4.20933 56.3039 4.48C 56.6352 4.75067 56.8755 5.07033 57.0249 5.439C 57.1742 5.80767 57.2489 6.209 57.2489 6.643C 57.2489 6.97433 57.2045 7.287 57.1159 7.581C 57.0272 7.875 56.8942 8.148 56.7169 8.4C 56.5442 8.64733 56.3295 8.869 56.0729 9.065C 55.8209 9.261 55.5292 9.422 55.1979 9.548C 55.3565 9.62733 55.5035 9.72533 55.6389 9.842C 55.7789 9.95867 55.9002 10.101 56.0029 10.269L 58.1729 13.818L 56.0309 13.818C 55.6342 13.818 55.3495 13.6687 55.1769 13.37L 53.4829 10.409C 53.4082 10.2783 53.3195 10.185 53.2169 10.129C 53.1189 10.073 52.9789 10.045 52.7969 10.045L 52.1949 10.045ZM 52.1949 8.414L 53.1469 8.414C 53.4689 8.414 53.7419 8.37433 53.9659 8.295C 54.1945 8.211 54.3812 8.09667 54.5259 7.952C 54.6705 7.80733 54.7755 7.63933 54.8409 7.448C 54.9062 7.252 54.9389 7.042 54.9389 6.818C 54.9389 6.37 54.7919 6.02 54.4979 5.768C 54.2085 5.516 53.7582 5.39 53.1469 5.39L 52.1949 5.39L 52.1949 8.414ZM 64.2494 13.818L 61.8694 13.818L 61.8694 3.619L 64.2494 3.619L 64.2494 13.818ZM 78.1558 13.818L 76.3218 13.818C 76.1165 13.818 75.9461 13.7713 75.8108 13.678C 75.6801 13.58 75.5891 13.4563 75.5378 13.307L 74.9358 11.529L 71.0578 11.529L 70.4558 13.307C 70.4091 13.4377 70.3181 13.5567 70.1828 13.664C 70.0475 13.7667 69.8818 13.818 69.6858 13.818L 67.8378 13.818L 71.7858 3.619L 74.2078 3.619L 78.1558 13.818ZM 71.6038 9.919L 74.3898 9.919L 73.4518 7.126C 73.3911 6.94867 73.3188 6.741 73.2348 6.503C 73.1555 6.26033 73.0761 5.999 72.9968 5.719C 72.9221 6.00367 72.8451 6.26733 72.7658 6.51C 72.6865 6.75267 72.6118 6.96267 72.5418 7.14L 71.6038 9.919ZM 83.8721 11.928L 87.6521 11.928L 87.6521 13.818L 81.5061 13.818L 81.5061 3.619L 83.8721 3.619L 83.8721 11.928ZM 97.8518 3.619L 97.8518 5.439L 93.6658 5.439L 93.6658 7.819L 96.8718 7.819L 96.8718 9.569L 93.6658 9.569L 93.6658 11.998L 97.8518 11.998L 97.8518 13.818L 91.2858 13.818L 91.2858 3.619L 97.8518 3.619ZM 107.406 5.691C 107.336 5.803 107.261 5.887 107.182 5.943C 107.107 5.999 107.009 6.027 106.888 6.027C 106.781 6.027 106.664 5.99433 106.538 5.929C 106.417 5.859 106.277 5.782 106.118 5.698C 105.964 5.614 105.787 5.53933 105.586 5.474C 105.385 5.404 105.157 5.369 104.9 5.369C 104.457 5.369 104.125 5.46467 103.906 5.656C 103.691 5.84267 103.584 6.097 103.584 6.419C 103.584 6.62433 103.649 6.79467 103.78 6.93C 103.911 7.06533 104.081 7.182 104.291 7.28C 104.506 7.378 104.748 7.469 105.019 7.553C 105.294 7.63233 105.574 7.72333 105.859 7.826C 106.144 7.924 106.421 8.04067 106.692 8.176C 106.967 8.31133 107.21 8.484 107.42 8.694C 107.635 8.904 107.807 9.16067 107.938 9.464C 108.069 9.76267 108.134 10.1243 108.134 10.549C 108.134 11.0203 108.052 11.4613 107.889 11.872C 107.726 12.2827 107.488 12.642 107.175 12.95C 106.867 13.2533 106.484 13.4937 106.027 13.671C 105.574 13.8437 105.059 13.93 104.48 13.93C 104.163 13.93 103.838 13.8973 103.507 13.832C 103.18 13.7667 102.863 13.6757 102.555 13.559C 102.247 13.4377 101.958 13.2953 101.687 13.132C 101.416 12.9687 101.181 12.7867 100.98 12.586L 101.68 11.48C 101.731 11.396 101.804 11.3283 101.897 11.277C 101.99 11.2257 102.091 11.2 102.198 11.2C 102.338 11.2 102.478 11.2443 102.618 11.333C 102.763 11.4217 102.924 11.5197 103.101 11.627C 103.283 11.7343 103.491 11.8323 103.724 11.921C 103.957 12.0097 104.233 12.054 104.55 12.054C 104.979 12.054 105.313 11.9607 105.551 11.774C 105.789 11.5827 105.908 11.2817 105.908 10.871C 105.908 10.633 105.843 10.4393 105.712 10.29C 105.581 10.1407 105.409 10.017 105.194 9.919C 104.984 9.821 104.744 9.73467 104.473 9.66C 104.202 9.58533 103.925 9.50367 103.64 9.415C 103.355 9.32167 103.078 9.20967 102.807 9.079C 102.536 8.94367 102.294 8.76867 102.079 8.554C 101.869 8.33467 101.699 8.064 101.568 7.742C 101.437 7.41533 101.372 7.014 101.372 6.538C 101.372 6.15533 101.449 5.782 101.603 5.418C 101.757 5.054 101.983 4.72967 102.282 4.445C 102.581 4.16033 102.947 3.934 103.381 3.766C 103.815 3.59333 104.312 3.507 104.872 3.507C 105.185 3.507 105.488 3.53267 105.782 3.584C 106.081 3.63067 106.363 3.703 106.629 3.801C 106.895 3.89433 107.142 4.00867 107.371 4.144C 107.604 4.27467 107.812 4.424 107.994 4.592L 107.406 5.691ZM 116.217 3.619L 118.121 3.619C 118.326 3.619 118.494 3.66567 118.625 3.759C 118.755 3.85233 118.849 3.976 118.905 4.13L 120.879 9.59C 120.967 9.828 121.056 10.087 121.145 10.367C 121.238 10.647 121.324 10.941 121.404 11.249C 121.469 10.941 121.544 10.647 121.628 10.367C 121.716 10.087 121.803 9.828 121.887 9.59L 123.847 4.13C 123.893 3.99933 123.984 3.88267 124.12 3.78C 124.255 3.67267 124.421 3.619 124.617 3.619L 126.535 3.619L 122.447 13.818L 120.305 13.818L 116.217 3.619ZM 137.996 13.818L 136.162 13.818C 135.957 13.818 135.787 13.7713 135.651 13.678C 135.521 13.58 135.43 13.4563 135.378 13.307L 134.776 11.529L 130.898 11.529L 130.296 13.307C 130.25 13.4377 130.159 13.5567 130.023 13.664C 129.888 13.7667 129.722 13.818 129.526 13.818L 127.678 13.818L 131.626 3.619L 134.048 3.619L 137.996 13.818ZM 131.444 9.919L 134.23 9.919L 133.292 7.126C 133.232 6.94867 133.159 6.741 133.075 6.503C 132.996 6.26033 132.917 5.999 132.837 5.719C 132.763 6.00367 132.686 6.26733 132.606 6.51C 132.527 6.75267 132.452 6.96267 132.382 7.14L 131.444 9.919ZM 143.713 11.928L 147.493 11.928L 147.493 13.818L 141.347 13.818L 141.347 3.619L 143.713 3.619L 143.713 11.928ZM 153.493 11.928L 157.273 11.928L 157.273 13.818L 151.127 13.818L 151.127 3.619L 153.493 3.619L 153.493 11.928ZM 167.472 3.619L 167.472 5.439L 163.286 5.439L 163.286 7.819L 166.492 7.819L 166.492 9.569L 163.286 9.569L 163.286 11.998L 167.472 11.998L 167.472 13.818L 160.906 13.818L 160.906 3.619L 167.472 3.619ZM 175.682 10.122C 175.682 10.6913 175.61 11.2093 175.465 11.676C 175.325 12.1427 175.111 12.544 174.821 12.88C 174.537 13.2113 174.177 13.4703 173.743 13.657C 173.309 13.839 172.798 13.93 172.21 13.93C 171.944 13.93 171.681 13.916 171.419 13.888C 171.163 13.86 170.894 13.8133 170.614 13.748L 170.74 12.369C 170.75 12.2477 170.796 12.1497 170.88 12.075C 170.969 12.0003 171.09 11.963 171.244 11.963C 171.324 11.963 171.422 11.977 171.538 12.005C 171.655 12.0283 171.795 12.04 171.958 12.04C 172.187 12.04 172.385 12.0097 172.553 11.949C 172.726 11.8837 172.868 11.7787 172.98 11.634C 173.092 11.4847 173.176 11.291 173.232 11.053C 173.288 10.815 173.316 10.521 173.316 10.171L 173.316 3.619L 175.682 3.619L 175.682 10.122ZM 189.944 8.715C 189.944 9.45233 189.816 10.1383 189.559 10.773C 189.307 11.4077 188.95 11.9607 188.488 12.432C 188.026 12.8987 187.468 13.265 186.815 13.531C 186.166 13.797 185.445 13.93 184.652 13.93C 183.859 13.93 183.135 13.797 182.482 13.531C 181.829 13.265 181.269 12.8987 180.802 12.432C 180.34 11.9607 179.981 11.4077 179.724 10.773C 179.472 10.1383 179.346 9.45233 179.346 8.715C 179.346 7.97767 179.472 7.29167 179.724 6.657C 179.981 6.02233 180.34 5.47167 180.802 5.005C 181.269 4.53833 181.829 4.172 182.482 3.906C 183.135 3.64 183.859 3.507 184.652 3.507C 185.445 3.507 186.166 3.64233 186.815 3.913C 187.468 4.179 188.026 4.54533 188.488 5.012C 188.95 5.47867 189.307 6.02933 189.559 6.664C 189.816 7.29867 189.944 7.98233 189.944 8.715ZM 187.522 8.715C 187.522 8.211 187.457 7.75833 187.326 7.357C 187.195 6.951 187.006 6.608 186.759 6.328C 186.516 6.048 186.218 5.83333 185.863 5.684C 185.508 5.53467 185.105 5.46 184.652 5.46C 184.195 5.46 183.786 5.53467 183.427 5.684C 183.072 5.83333 182.771 6.048 182.524 6.328C 182.281 6.608 182.095 6.951 181.964 7.357C 181.833 7.75833 181.768 8.211 181.768 8.715C 181.768 9.22367 181.833 9.681 181.964 10.087C 182.095 10.4883 182.281 10.829 182.524 11.109C 182.771 11.389 183.072 11.6037 183.427 11.753C 183.786 11.8977 184.195 11.97 184.652 11.97C 185.105 11.97 185.508 11.8977 185.863 11.753C 186.218 11.6037 186.516 11.389 186.759 11.109C 187.006 10.829 187.195 10.4883 187.326 10.087C 187.457 9.681 187.522 9.22367 187.522 8.715Z"/>
<path id="path1_fill" fill-rule="evenodd" d="M 16.2002 0L 15.3049 1.49506L 14.2847 0L 10.5363 0L 0 17.6545L 8.41258 17.6545L 12.598 1.85566L 15.5028 7.35317L 18.0328 1.9404L 22.0306 17.6545L 30.4639 17.6545L 20.0316 0L 16.2002 0Z"/>
<path id="path2_fill" fill-rule="evenodd" d="M 15.5203 1.38919L 16.3523 0L 20.3245 0L 20.3611 0.0615845L 30.9072 17.9092L 22.1562 17.9092L 22.1318 17.8135L 18.22 2.43817L 15.7317 7.76212L 12.8586 2.32492L 8.73022 17.9092L 0 17.9092L 10.6882 0L 14.572 0L 15.5203 1.38919ZM 20.1829 0.254486L 16.4922 0.254486L 15.5334 1.85541L 14.4412 0.254486L 10.8286 0.254486L 0.444092 17.6547L 8.53833 17.6547L 12.7808 1.64087L 15.7175 7.19946L 18.2893 1.69711L 22.3491 17.6547L 30.4648 17.6547L 20.1829 0.254486Z"/>
<path id="path3_fill" fill-rule="evenodd" d="M 8.63647 16.308L 0 16.4353L 1.06197 17.7713L 10.1982 17.7713L 13.54 4.09304L 16.0388 8.38737L 18.694 4.25209L 19.8297 6.46784L 18.2567 0.084996L 15.7267 6.00698L 12.8219 0L 8.63647 16.308Z"/>
<path id="path4_fill" fill-rule="evenodd" d="M 5.61122 9.44575L 10.4296 17.5998L 1.90156 17.7817L 2.87083 19.063L 11.7414 19.063L 0 0L 5.61122 9.44575Z"/>
<path id="path5_fill" fill-rule="evenodd" d="M 1.02024 1.49506L 1.16742 1.24949L 0 0L 1.02024 1.49506Z"/>
<path id="path6_fill" fill-rule="evenodd" d="M 21.3956 0L 14.3366 14.8234L 8.33961 0L 0 0L 12.6812 17.1455L 16.9913 17.1455L 29.9224 0L 21.3956 0Z"/>
<path id="path7_fill" fill-rule="evenodd" d="M 14.5967 14.6394L 21.5679 0L 30.427 0L 17.3037 17.4L 12.8694 17.4L 0 0L 8.67383 0L 14.5967 14.6394ZM 29.9197 0.254486L 21.7246 0.254486L 14.5781 15.2619L 8.50659 0.254486L 0.501465 0.254486L 12.9941 17.1455L 17.1807 17.1455L 29.9197 0.254486Z"/>
<path id="path8_fill" fill-rule="evenodd" d="M 4.47078 17.2621L 0 17.2621L 1.62844 19.2343L 6.00127 19.2343L 18.714 1.548L 17.631 0L 4.47078 17.2621Z"/>
<path id="path9_fill" fill-rule="evenodd" d="M 5.90332 14.94L 6.52801 13.6281L 0 0L 5.90332 14.94Z"/>
</defs>
</svg>
