<svg width="53" height="52" viewBox="0 0 53 52" version="1.1" xmlns="http://www.w3.org/2000/svg" xmlns:xlink="http://www.w3.org/1999/xlink" xmlns:figma="http://www.figma.com/figma/ns">
<title>Icon</title>
<desc>Created using Figma</desc>
<g id="Canvas" transform="translate(-7290 129)" figma:type="canvas">
<g id="Icon" style="mix-blend-mode:normal;" figma:type="frame">
<g id="Icon" style="mix-blend-mode:normal;" figma:type="vector">
<use xlink:href="#path0_fill" transform="matrix(0.711379 -0.702808 0.711379 0.702808 7281 -105.2)" fill="#E0E0E0" style="mix-blend-mode:normal;"/>
</g>
<g id="Icon" style="mix-blend-mode:normal;" figma:type="vector">
<use xlink:href="#path1_fill" transform="translate(7310 -115.064)" fill="#BDBDBD" style="mix-blend-mode:normal;"/>
</g>
</g>
</g>
<defs>
<path id="path0_fill" fill-rule="evenodd" d="M 26.6685 46.4336C 37.9771 44.816 46.6699 35.0907 46.6699 23.335C 46.6699 10.4474 36.2224 0 23.335 0C 10.4475 0 0 10.4474 0 23.335C 0 35.0907 8.69282 44.816 20.0014 46.4336L 19.6492 59.774L 26.3164 59.774L 26.6685 46.4336ZM 45.0031 23.335C 45.0031 35.3019 35.3019 45.0031 23.335 45.0031C 11.368 45.0031 1.66678 35.3019 1.66678 23.335C 1.66678 11.368 11.368 1.66678 23.335 1.66678C 35.3019 1.66678 45.0031 11.368 45.0031 23.335Z"/>
<path id="path1_fill" d="M 0 1.94822C 0.304069 1.68316 0.634968 1.43135 0.992697 1.19279C 1.35937 0.954231 1.75287 0.746597 2.1732 0.569887C 2.59353 0.393178 3.04964 0.256229 3.54151 0.159038C 4.03339 0.0530137 4.56551 0 5.13788 0C 5.91594 0 6.62245 0.106026 7.25742 0.318077C 7.90133 0.530128 8.45134 0.834951 8.90744 1.23255C 9.36355 1.62131 9.71681 2.09401 9.96721 2.65064C 10.2176 3.20727 10.3428 3.83018 10.3428 4.51934C 10.3428 5.19084 10.2445 5.77398 10.0477 6.26876C 9.85095 6.75471 9.60054 7.17882 9.29647 7.54107C 9.00135 7.90333 8.67939 8.21698 8.33061 8.48205C 7.98182 8.74711 7.65092 8.99892 7.33791 9.23748C 7.0249 9.4672 6.75213 9.69692 6.51961 9.92665C 6.29602 10.1475 6.16188 10.3993 6.11716 10.6821L 5.80862 12.617L 3.54151 12.617L 3.31346 10.4568C 3.30452 10.4126 3.30005 10.3773 3.30005 10.3508C 3.30005 10.3154 3.30005 10.2756 3.30005 10.2315C 3.30005 9.84271 3.39842 9.50696 3.59517 9.22423C 3.79192 8.93266 4.03786 8.66318 4.33299 8.41578C 4.62811 8.15955 4.9456 7.91216 5.28544 7.6736C 5.62528 7.43505 5.94277 7.17882 6.23789 6.90492C 6.53302 6.62218 6.77896 6.30411 6.97571 5.95069C 7.17246 5.59727 7.27084 5.182 7.27084 4.70489C 7.27084 4.38681 7.20823 4.10407 7.08303 3.85668C 6.96677 3.60045 6.80132 3.38398 6.58668 3.20727C 6.37204 3.02173 6.11269 2.88036 5.80862 2.78317C 5.51349 2.68598 5.19154 2.63739 4.84275 2.63739C 4.33299 2.63739 3.89924 2.69482 3.54151 2.80968C 3.19273 2.9157 2.89313 3.0394 2.64272 3.18077C 2.40125 3.3133 2.19556 3.437 2.02564 3.55186C 1.85572 3.65788 1.70368 3.7109 1.56953 3.7109C 1.24758 3.7109 1.01506 3.57836 0.871964 3.3133L 0 1.94822ZM 2.5354 17.5737C 2.5354 17.2998 2.58459 17.0392 2.68297 16.7918C 2.79028 16.5444 2.93338 16.3324 3.11224 16.1557C 3.30005 15.9789 3.51916 15.8376 3.76957 15.7316C 4.01998 15.6255 4.28827 15.5725 4.57446 15.5725C 4.8517 15.5725 5.11552 15.6255 5.36593 15.7316C 5.61634 15.8376 5.83098 15.9789 6.00984 16.1557C 6.18871 16.3324 6.3318 16.5444 6.43912 16.7918C 6.54643 17.0392 6.60009 17.2998 6.60009 17.5737C 6.60009 17.8565 6.54643 18.1215 6.43912 18.3689C 6.3318 18.6075 6.18871 18.8151 6.00984 18.9918C 5.83098 19.1685 5.61634 19.3055 5.36593 19.4027C 5.11552 19.5087 4.8517 19.5617 4.57446 19.5617C 4.28827 19.5617 4.01998 19.5087 3.76957 19.4027C 3.51916 19.3055 3.30005 19.1685 3.11224 18.9918C 2.93338 18.8151 2.79028 18.6075 2.68297 18.3689C 2.58459 18.1215 2.5354 17.8565 2.5354 17.5737Z"/>
</defs>
</svg>
