<svg width="14" height="26" viewBox="0 0 14 26" version="1.1" xmlns="http://www.w3.org/2000/svg" xmlns:xlink="http://www.w3.org/1999/xlink" xmlns:figma="http://www.figma.com/figma/ns">
<title>Icon</title>
<desc>Created using Figma</desc>
<g id="Canvas" transform="translate(747 -1732)" figma:type="canvas">
<rect x="-747" y="1732" width="14" height="26" fill="#FFFFFF"/>
<mask id="mask0_alpha" mask-type="alpha">
<path d="M -791 -499L -471 -499L -471 2522L -791 2522L -791 -499Z" fill="#FFFFFF"/>
</mask>
<g id="index-mobile" style="mix-blend-mode:normal;" mask="url(#mask0_alpha)" figma:type="frame">
<g id="Contact" style="mix-blend-mode:normal;" figma:type="frame">
<g id="Base" style="mix-blend-mode:normal;" figma:type="rounded-rectangle">
<use xlink:href="#path0_fill" transform="translate(-791 1534)" fill="#FFFFFF" style="mix-blend-mode:normal;"/>
</g>
<g id="Button (Active)" style="mix-blend-mode:normal;" figma:type="frame">
<g id="Base" style="mix-blend-mode:normal;" figma:type="rounded-rectangle">
<mask id="mask1_outline_ins">
<use xlink:href="#path1_fill" fill="white" transform="translate(-767 1717.84)"/>
</mask>
<g mask="url(#mask1_outline_ins)">
<use xlink:href="#path2_stroke_2x" transform="translate(-767 1717.84)" fill="#27AE60" style="mix-blend-mode:normal;"/>
</g>
</g>
<g id="Icon" style="mix-blend-mode:normal;" figma:type="frame">
<g id="Strokes" style="mix-blend-mode:normal;" figma:type="frame">
<g id="Stroke" style="mix-blend-mode:normal;" figma:type="vector">
<use xlink:href="#path3_stroke" transform="translate(-746 1732.84)" fill="#BDBDBD" style="mix-blend-mode:normal;"/>
</g>
<g id="Stroke" style="mix-blend-mode:normal;" figma:type="vector">
<use xlink:href="#path4_stroke" transform="translate(-745.917 1752.44)" fill="#BDBDBD" style="mix-blend-mode:normal;"/>
</g>
<g id="Stroke" style="mix-blend-mode:normal;" figma:type="vector">
<use xlink:href="#path4_stroke" transform="translate(-745.917 1736.44)" fill="#BDBDBD" style="mix-blend-mode:normal;"/>
</g>
<g id="Stroke" style="mix-blend-mode:normal;" figma:type="vector">
<use xlink:href="#path5_stroke" transform="translate(-740.888 1734.94)" fill="#BDBDBD" style="mix-blend-mode:normal;"/>
</g>
</g>
<g id="Fills" style="mix-blend-mode:normal;" figma:type="frame">
<g id="Fill" style="mix-blend-mode:normal;" figma:type="vector">
<use xlink:href="#path6_fill" transform="translate(-740.38 1754.34)" fill="#BDBDBD" style="mix-blend-mode:normal;"/>
</g>
</g>
</g>
</g>
</g>
</g>
</g>
<defs>
<path id="path0_fill" d="M 0 0L 320 0L 320 711L 0 711L 0 0Z"/>
<path id="path1_fill" d="M 0 2C 0 0.895431 0.895431 0 2 0L 270 0C 271.105 0 272 0.895431 272 2L 272 52C 272 53.1046 271.105 54 270 54L 2 54C 0.895431 54 0 53.1046 0 52L 0 2Z"/>
<path id="path2_stroke_2x" d="M 2 1L 270 1L 270 -1L 2 -1L 2 1ZM 271 2L 271 52L 273 52L 273 2L 271 2ZM 270 53L 2 53L 2 55L 270 55L 270 53ZM 1 52L 1 2L -1 2L -1 52L 1 52ZM 2 -1C 0.343146 -1 -1 0.343146 -1 2L 1 2C 1 1.44772 1.44772 1 2 1L 2 -1ZM 270 1C 270.552 1 271 1.44772 271 2L 273 2C 273 0.343146 271.657 -1 270 -1L 270 1ZM 271 52C 271 52.5523 270.552 53 270 53L 270 55C 271.657 55 273 53.6569 273 52L 271 52ZM 2 53C 1.44772 53 1 52.5523 1 52L -1 52C -1 53.6569 0.343146 55 2 55L 2 53Z"/>
<path id="path3_stroke" d="M 0.760408 0.5L 11.2396 0.5L 11.2396 -0.5L 0.760408 -0.5L 0.760408 0.5ZM 11.2396 0.5C 11.3596 0.5 11.5 0.610325 11.5 0.8L 12.5 0.8C 12.5 0.106475 11.9591 -0.5 11.2396 -0.5L 11.2396 0.5ZM 11.5 0.8L 11.5 23.2L 12.5 23.2L 12.5 0.8L 11.5 0.8ZM 11.5 23.2C 11.5 23.3897 11.3596 23.5 11.2396 23.5L 11.2396 24.5C 11.9591 24.5 12.5 23.8935 12.5 23.2L 11.5 23.2ZM 11.2396 23.5L 0.760408 23.5L 0.760408 24.5L 11.2396 24.5L 11.2396 23.5ZM 0.760408 23.5C 0.640416 23.5 0.5 23.3897 0.5 23.2L -0.5 23.2C -0.5 23.8935 0.0409098 24.5 0.760408 24.5L 0.760408 23.5ZM 0.5 23.2L 0.5 0.8L -0.5 0.8L -0.5 23.2L 0.5 23.2ZM 0.5 0.8C 0.5 0.610325 0.640416 0.5 0.760408 0.5L 0.760408 -0.5C 0.0409098 -0.5 -0.5 0.106475 -0.5 0.8L 0.5 0.8Z"/>
<path id="path4_stroke" d="M 11.8335 -0.5L 0 -0.5L 0 0.5L 11.8335 0.5L 11.8335 -0.5Z"/>
<path id="path5_stroke" d="M 0 0.25L 1.77479 0.25L 1.77479 -0.25L 0 -0.25L 0 0.25ZM 1.77479 -0.25L 0 -0.25L 0 0.25L 1.77479 0.25L 1.77479 -0.25Z"/>
<path id="path6_fill" fill-rule="evenodd" d="M 0 0.4C 0 0.1792 0.170331 0 0.380204 0C 0.590077 0 0.760408 0.1792 0.760408 0.4C 0.760408 0.6208 0.590077 0.8 0.380204 0.8C 0.170331 0.8 0 0.6208 0 0.4"/>
</defs>
</svg>
